<?xml version="1.0" encoding="UTF-8" standalone="no"?>
<!-- Created with Inkscape (http://www.inkscape.org/) -->

<svg
   xmlns:dc="http://purl.org/dc/elements/1.1/"
   xmlns:cc="http://creativecommons.org/ns#"
   xmlns:rdf="http://www.w3.org/1999/02/22-rdf-syntax-ns#"
   xmlns:svg="http://www.w3.org/2000/svg"
   xmlns="http://www.w3.org/2000/svg"
   xmlns:sodipodi="http://sodipodi.sourceforge.net/DTD/sodipodi-0.dtd"
   xmlns:inkscape="http://www.inkscape.org/namespaces/inkscape"
   width="16.535585"
   height="26.500002"
   viewBox="0 0 4.3750402 7.0114591"
   version="1.1"
   id="svg1915"
   inkscape:version="0.92.3 (2405546, 2018-03-11)"
   sodipodi:docname="dishwasher.svg">
  <defs
     id="defs1909" />
  <sodipodi:namedview
     id="base"
     pagecolor="#ffffff"
     bordercolor="#666666"
     borderopacity="1.0"
     inkscape:pageopacity="0.0"
     inkscape:pageshadow="2"
     inkscape:zoom="11.2"
     inkscape:cx="42.786101"
     inkscape:cy="11.175836"
     inkscape:document-units="mm"
     inkscape:current-layer="layer1"
     showgrid="false"
     units="px"
     inkscape:window-width="1920"
     inkscape:window-height="1018"
     inkscape:window-x="-8"
     inkscape:window-y="-8"
     inkscape:window-maximized="1"
     fit-margin-top="0.5"
     fit-margin-left="0.1"
     fit-margin-right="0.1"
     fit-margin-bottom="0.5" />
  <metadata
     id="metadata1912">
    <rdf:RDF>
      <cc:Work
         rdf:about="">
        <dc:format>image/svg+xml</dc:format>
        <dc:type
           rdf:resource="http://purl.org/dc/dcmitype/StillImage" />
        <dc:title></dc:title>
      </cc:Work>
    </rdf:RDF>
  </metadata>
  <g
     inkscape:label="Layer 1"
     inkscape:groupmode="layer"
     id="layer1"
     transform="translate(-0.22762583,-290.56919)">
    <g
       id="g2944"
       transform="matrix(0.06442472,0,0,0.06442472,1.7798777,274.71161)">
      <path
         id="rect13258"
         transform="matrix(0.26458333,0,0,0.26458333,-0.98263733,290.56919)"
         d="m -39.507812,-158.375 c -24.6587,0 -44.509766,19.85302 -44.509766,44.51172 v 25.029296 c 7.924898,-7.312895 18.52343,-11.775386 30.207031,-11.775396 H 138.61523 c 10.3403,0 19.82679,3.500762 27.36719,9.373052 v -22.626952 c 0,-24.6587 -19.85291,-44.51172 -44.51172,-44.51172 z m 119.93164,11.00586 a 15,15 0 0 1 15,15 15,15 0 0 1 -15,15 15,15 0 0 1 -15,-15 15,15 0 0 1 15,-15 z m 44.000002,0 a 15,15 0 0 1 15,15 15,15 0 0 1 -15,15 15,15 0 0 1 -15,-15 15,15 0 0 1 15,-15 z m -170.207033,5.59766 h 78.587891 v 18.80664 h -78.587891 z m -29.109375,358.1875 c 8.120001,10.6227 20.921867,17.45703 35.384766,17.45703 H 121.4707 c 13.47631,0 25.50715,-5.93721 33.65625,-15.33985 -5.10279,2.02882 -10.66912,3.1543 -16.51172,3.1543 H -53.810547 c -7.638399,0 -14.813329,-1.90899 -21.082031,-5.27148 z"
         style="opacity:1;fill:#41b6c9;fill-opacity:1;stroke:#41b6c9;stroke-width:3.56082535;stroke-linecap:round;stroke-linejoin:round;stroke-miterlimit:4;stroke-dasharray:none;stroke-dashoffset:0;stroke-opacity:1;paint-order:stroke fill markers"
         inkscape:connector-curvature="0" />
      <path
         id="rect13262"
         transform="matrix(0.26458333,0,0,0.26458333,-0.98263733,290.56919)"
         d="m -39.507812,-60.306641 c -24.658715,0 -44.509766,19.851051 -44.509766,44.509766 V 189.36328 c 0,24.65872 19.851051,44.51172 44.509766,44.51172 H 121.4707 c 24.65872,0 44.51172,-19.853 44.51172,-44.51172 V -15.796875 c 0,-24.658715 -19.853,-44.509766 -44.51172,-44.509766 z m 25,25.089844 H 96.470703 c 24.658717,0 44.511717,19.851051 44.511717,44.5097658 V 164.27344 c 0,24.65871 -19.853,44.50976 -44.511717,44.50976 H -14.507812 c -24.658715,0 -44.509766,-19.85105 -44.509766,-44.50976 V 9.2929688 c 0,-24.6587148 19.851051,-44.5097658 44.509766,-44.5097658 z"
         style="opacity:1;fill:#41b6c9;fill-opacity:1;stroke:#41b6c9;stroke-width:3.56082535;stroke-linecap:round;stroke-linejoin:round;stroke-miterlimit:4;stroke-dasharray:none;stroke-dashoffset:0;stroke-opacity:1;paint-order:stroke fill markers"
         inkscape:connector-curvature="0" />
      <path
         inkscape:export-filename="C:\Users\daria\Documents\WORK_PROJECTS\CanaryCompany\icons\site\20\dish-new.png"
         inkscape:export-ydpi="4.8508191"
         inkscape:export-xdpi="4.8508191"
         style="opacity:1;fill:#41b6c9;fill-opacity:1;stroke:none;stroke-width:0.94213504;stroke-linecap:round;stroke-linejoin:round;stroke-miterlimit:4;stroke-dasharray:none;stroke-dashoffset:0;stroke-opacity:1;paint-order:stroke fill markers"
         d="m -18.552804,322.93135 v 1.42621 c 0,7.00633 5.640334,12.64666 12.6466601,12.64666 H 25.62642 c 7.006326,0 12.647216,-5.64033 12.647216,-12.64666 v -1.42621 l -1.389142,0.0159 c -0.413121,6.62778 -5.886133,11.84037 -12.621578,11.84037 H -4.5420849 c -6.7354711,0 -12.2090131,-5.21259 -12.6221591,-11.84037 z"
         id="path13272"
         inkscape:connector-curvature="0"
         sodipodi:nodetypes="cssssccsscc" />
      <g
         inkscape:export-filename="C:\Users\daria\Documents\WORK_PROJECTS\CanaryCompany\icons\site\20\dish-new.png"
         inkscape:export-ydpi="4.8508191"
         inkscape:export-xdpi="4.8508191"
         style="fill:#41b6c9;fill-opacity:1"
         id="g13356"
         transform="matrix(0.26458333,0,0,0.26458333,-474.48214,-348.19787)">
        <rect
           style="opacity:1;fill:#41b6c9;fill-opacity:1;stroke:none;stroke-width:6;stroke-linecap:round;stroke-linejoin:round;stroke-miterlimit:4;stroke-dasharray:none;stroke-dashoffset:0;stroke-opacity:1;paint-order:stroke fill markers"
           id="rect13346"
           width="17.550327"
           height="109.22036"
           x="1773.0226"
           y="2450.0898"
           ry="10.961324"
           rx="6.2816577" />
        <rect
           style="opacity:1;fill:#41b6c9;fill-opacity:1;stroke:none;stroke-width:6;stroke-linecap:round;stroke-linejoin:round;stroke-miterlimit:4;stroke-dasharray:none;stroke-dashoffset:0;stroke-opacity:1;paint-order:stroke fill markers"
           id="rect13348"
           width="13.189994"
           height="157.22743"
           x="1765.6692"
           y="2426.0864" />
      </g>
      <g
         inkscape:export-filename="C:\Users\daria\Documents\WORK_PROJECTS\CanaryCompany\icons\site\20\dish-new.png"
         inkscape:export-ydpi="4.8508191"
         inkscape:export-xdpi="4.8508191"
         style="fill:#41b6c9;fill-opacity:1"
         id="g13362"
         transform="matrix(0.26458333,0,0,0.26458333,-466.01547,-348.19787)">
        <rect
           rx="6.2816577"
           ry="10.961324"
           y="2450.0898"
           x="1773.0226"
           height="109.22036"
           width="17.550327"
           id="rect13358"
           style="opacity:1;fill:#41b6c9;fill-opacity:1;stroke:none;stroke-width:6;stroke-linecap:round;stroke-linejoin:round;stroke-miterlimit:4;stroke-dasharray:none;stroke-dashoffset:0;stroke-opacity:1;paint-order:stroke fill markers" />
        <rect
           y="2426.0864"
           x="1765.6692"
           height="157.22743"
           width="13.189994"
           id="rect13360"
           style="opacity:1;fill:#41b6c9;fill-opacity:1;stroke:none;stroke-width:6;stroke-linecap:round;stroke-linejoin:round;stroke-miterlimit:4;stroke-dasharray:none;stroke-dashoffset:0;stroke-opacity:1;paint-order:stroke fill markers" />
      </g>
      <g
         inkscape:export-filename="C:\Users\daria\Documents\WORK_PROJECTS\CanaryCompany\icons\site\20\dish-new.png"
         inkscape:export-ydpi="4.8508191"
         inkscape:export-xdpi="4.8508191"
         style="fill:#41b6c9;fill-opacity:1"
         transform="matrix(0.26458333,0,0,0.26458333,-519.05673,-377.51037)"
         id="g13408">
        <g
           style="fill:#41b6c9;fill-opacity:1"
           id="g13397"
           transform="translate(-302.25864,-150.45763)">
          <rect
             style="opacity:1;fill:#41b6c9;fill-opacity:1;stroke:none;stroke-width:8;stroke-linecap:round;stroke-linejoin:round;stroke-miterlimit:4;stroke-dasharray:none;stroke-dashoffset:0;stroke-opacity:1;paint-order:stroke fill markers"
             id="rect13393"
             width="50.345085"
             height="65.543602"
             x="2303.5251"
             y="2777.5288"
             ry="32.534382"
             rx="24.460014" />
          <rect
             y="2807.5288"
             x="2303.5251"
             height="36.444"
             width="50.345085"
             id="rect13395"
             style="opacity:1;fill:#41b6c9;fill-opacity:1;stroke:none;stroke-width:8;stroke-linecap:round;stroke-linejoin:round;stroke-miterlimit:4;stroke-dasharray:none;stroke-dashoffset:0;stroke-opacity:1;paint-order:stroke fill markers" />
        </g>
        <rect
           y="2599.7056"
           x="2021.4391"
           height="83.427002"
           width="10"
           id="rect13399"
           style="opacity:1;fill:#41b6c9;fill-opacity:1;stroke:none;stroke-width:6;stroke-linecap:round;stroke-linejoin:round;stroke-miterlimit:4;stroke-dasharray:none;stroke-dashoffset:0;stroke-opacity:1;paint-order:stroke fill markers" />
        <rect
           transform="rotate(-90)"
           style="opacity:1;fill:#41b6c9;fill-opacity:1;stroke:none;stroke-width:6;stroke-linecap:round;stroke-linejoin:round;stroke-miterlimit:4;stroke-dasharray:none;stroke-dashoffset:0;stroke-opacity:1;paint-order:stroke fill markers"
           id="rect13401"
           width="10"
           height="45"
           x="-2601.4688"
           y="2003.9391" />
      </g>
    </g>
  </g>
</svg>
