<?xml version="1.0" encoding="UTF-8" standalone="no"?>
<!-- Created with Inkscape (http://www.inkscape.org/) -->

<svg
   xmlns:dc="http://purl.org/dc/elements/1.1/"
   xmlns:cc="http://creativecommons.org/ns#"
   xmlns:rdf="http://www.w3.org/1999/02/22-rdf-syntax-ns#"
   xmlns:svg="http://www.w3.org/2000/svg"
   xmlns="http://www.w3.org/2000/svg"
   xmlns:sodipodi="http://sodipodi.sourceforge.net/DTD/sodipodi-0.dtd"
   xmlns:inkscape="http://www.inkscape.org/namespaces/inkscape"
   width="16.535585"
   height="26.500002"
   viewBox="0 0 4.3750402 7.0114591"
   version="1.1"
   id="svg1915"
   inkscape:version="0.92.3 (2405546, 2018-03-11)"
   sodipodi:docname="washing_machine.svg">
  <defs
     id="defs1909" />
  <sodipodi:namedview
     id="base"
     pagecolor="#ffffff"
     bordercolor="#666666"
     borderopacity="1.0"
     inkscape:pageopacity="0.0"
     inkscape:pageshadow="2"
     inkscape:zoom="22.4"
     inkscape:cx="26.866113"
     inkscape:cy="6.8985825"
     inkscape:document-units="mm"
     inkscape:current-layer="layer1"
     showgrid="false"
     units="px"
     inkscape:window-width="1920"
     inkscape:window-height="1018"
     inkscape:window-x="-8"
     inkscape:window-y="-8"
     inkscape:window-maximized="1"
     fit-margin-top="0.5"
     fit-margin-left="0.1"
     fit-margin-right="0.1"
     fit-margin-bottom="0.5" />
  <metadata
     id="metadata1912">
    <rdf:RDF>
      <cc:Work
         rdf:about="">
        <dc:format>image/svg+xml</dc:format>
        <dc:type
           rdf:resource="http://purl.org/dc/dcmitype/StillImage" />
        <dc:title></dc:title>
      </cc:Work>
    </rdf:RDF>
  </metadata>
  <g
     inkscape:label="Layer 1"
     inkscape:groupmode="layer"
     id="layer1"
     transform="translate(-0.2276259,-290.56919)">
    <g
       id="g2986"
       transform="matrix(0.06442472,0,0,0.06442472,2.4857098,275.57454)">
      <g
         id="g2980">
        <path
           style="opacity:1;fill:#3cb4c7;fill-opacity:1;stroke:#3cb4c7;stroke-width:3.56082535;stroke-linecap:round;stroke-linejoin:round;stroke-miterlimit:4;stroke-dasharray:none;stroke-dashoffset:0;stroke-opacity:0.97254902;paint-order:stroke fill markers"
           d="M -85.490234,-209 C -110.14893,-209 -130,-189.14698 -130,-164.48828 v 25.0293 c 7.9249,-7.3129 18.52353,-11.77539 30.207031,-11.7754 H 92.632812 c 10.340398,0 19.826788,3.50076 27.367188,9.37305 v -22.62695 C 120,-189.14698 100.14698,-209 75.488281,-209 Z m 119.93164,11.00586 a 15,15 0 0 1 15,15 15,15 0 0 1 -15,15 15,15 0 0 1 -15,-15 15,15 0 0 1 15,-15 z m 44,0 a 15,15 0 0 1 15,15 15,15 0 0 1 -15,15 15,15 0 0 1 -15,-15 15,15 0 0 1 15,-15 z M -120.875,165.79102 c 8.12,10.6227 20.921867,17.45703 35.384766,17.45703 H 75.488281 c 13.476201,0 25.507249,-5.93721 33.656249,-15.33985 -5.1027,2.02882 -10.669018,3.1543 -16.511718,3.1543 H -99.792969 c -7.638401,0 -14.813331,-1.90899 -21.082031,-5.27148 z"
           transform="matrix(0.26458333,0,0,0.26458333,0.22762583,290.56919)"
           id="rect13147"
           inkscape:connector-curvature="0" />
      </g>
      <path
         id="rect13154"
         transform="matrix(0.26458333,0,0,0.26458333,0.22762583,290.56919)"
         d="M -85.490234,-110.93164 C -110.14895,-110.93164 -130,-91.08059 -130,-66.421875 V 138.73828 c 0,24.65872 19.85105,44.51172 44.509766,44.51172 H 75.490234 C 100.14895,183.25 120,163.397 120,138.73828 V -66.421875 C 120,-91.08059 100.14895,-110.93164 75.490234,-110.93164 Z M -5,-51.035156 A 87.19295,87.19295 0 0 1 82.193359,36.158203 87.19295,87.19295 0 0 1 -5,123.35156 87.19295,87.19295 0 0 1 -92.193359,36.158203 87.19295,87.19295 0 0 1 -5,-51.035156 Z"
         style="opacity:1;fill:#3cb4c7;fill-opacity:1;stroke:#3cb4c7;stroke-width:3.56082535;stroke-linecap:round;stroke-linejoin:round;stroke-miterlimit:4;stroke-dasharray:none;stroke-dashoffset:0;stroke-opacity:0.97254902;paint-order:stroke fill markers"
         inkscape:connector-curvature="0" />
      <circle
         inkscape:export-filename="C:\Users\daria\Documents\WORK_PROJECTS\CanaryCompany\icons\site\20\laundry-new.png"
         inkscape:export-ydpi="4.9218845"
         inkscape:export-xdpi="4.9218845"
         style="opacity:1;fill:#3cb4c7;fill-opacity:1;stroke:none;stroke-width:4.09449673;stroke-linecap:round;stroke-linejoin:round;stroke-miterlimit:4;stroke-dasharray:none;stroke-dashoffset:0;stroke-opacity:1;paint-order:stroke fill markers"
         id="circle13162"
         cx="-1.0953697"
         cy="300.13611"
         r="15.354363" />
    </g>
  </g>
</svg>
