<?xml version="1.0" encoding="UTF-8" standalone="no"?>
<!-- Created with Inkscape (http://www.inkscape.org/) -->

<svg
   xmlns:dc="http://purl.org/dc/elements/1.1/"
   xmlns:cc="http://creativecommons.org/ns#"
   xmlns:rdf="http://www.w3.org/1999/02/22-rdf-syntax-ns#"
   xmlns:svg="http://www.w3.org/2000/svg"
   xmlns="http://www.w3.org/2000/svg"
   xmlns:sodipodi="http://sodipodi.sourceforge.net/DTD/sodipodi-0.dtd"
   xmlns:inkscape="http://www.inkscape.org/namespaces/inkscape"
   width="36.101067"
   height="26.500019"
   viewBox="0 0 9.5517403 7.0114636"
   version="1.1"
   id="svg1915"
   inkscape:version="0.92.3 (2405546, 2018-03-11)"
   sodipodi:docname="wifi.svg">
  <defs
     id="defs1909" />
  <sodipodi:namedview
     id="base"
     pagecolor="#ffffff"
     bordercolor="#666666"
     borderopacity="1.0"
     inkscape:pageopacity="0.0"
     inkscape:pageshadow="2"
     inkscape:zoom="7.9195959"
     inkscape:cx="50.40033"
     inkscape:cy="-8.3937133"
     inkscape:document-units="mm"
     inkscape:current-layer="layer1"
     showgrid="false"
     units="px"
     inkscape:window-width="1920"
     inkscape:window-height="1018"
     inkscape:window-x="-8"
     inkscape:window-y="-8"
     inkscape:window-maximized="1"
     fit-margin-top="0.5"
     fit-margin-left="0.1"
     fit-margin-right="0.1"
     fit-margin-bottom="0.5" />
  <metadata
     id="metadata1912">
    <rdf:RDF>
      <cc:Work
         rdf:about="">
        <dc:format>image/svg+xml</dc:format>
        <dc:type
           rdf:resource="http://purl.org/dc/dcmitype/StillImage" />
        <dc:title></dc:title>
      </cc:Work>
    </rdf:RDF>
  </metadata>
  <g
     inkscape:label="Layer 1"
     inkscape:groupmode="layer"
     id="layer1"
     transform="translate(2.3607243,-290.56919)">
    <path
       id="path13711"
       d="m 2.415148,297.44836 q -0.09673,0 -0.449792,-0.35548 -0.353064,-0.35548 -0.353064,-0.45221 0,-0.15477 0.30228,-0.26117 0.302278,-0.1064 0.500576,-0.1064 0.198293,0 0.500574,0.1064 0.302278,0.1064 0.302278,0.26117 0,0.0967 -0.353063,0.45221 -0.353062,0.35548 -0.449789,0.35548 z m 1.305844,-1.31068 q -0.0097,0 -0.193457,-0.12092 -0.183786,-0.12091 -0.490903,-0.24182 -0.307115,-0.12091 -0.621484,-0.12091 -0.314372,0 -0.621489,0.12091 -0.307114,0.12091 -0.488482,0.24182 -0.181368,0.12092 -0.195877,0.12092 -0.08706,0 -0.45221098,-0.36274 -0.365151,-0.36273 -0.365151,-0.44979 0,-0.0629 0.04836,-0.11124 0.377248,-0.3724 0.94794998,-0.58521 0.570702,-0.2128 1.126899,-0.2128 0.556192,0 1.126894,0.2128 0.570705,0.21281 0.94795,0.58521 0.04837,0.0484 0.04837,0.11124 0,0.0871 -0.365156,0.44979 -0.365154,0.36274 -0.45221,0.36274 z m 1.320358,-1.31552 q -0.0532,0 -0.111239,-0.0387 -0.657759,-0.50783 -1.21879,-0.74724 -0.561031,-0.23941 -1.296173,-0.23941 -0.411101,0 -0.824621,0.10641 -0.413517,0.1064 -0.72063198,0.25633 -0.307117,0.14993 -0.548939,0.29986 -0.241823,0.14993 -0.382082,0.25633 -0.140257,0.10641 -0.14993,0.10641 -0.08222,0 -0.444955,-0.36274 -0.36273602,-0.36273 -0.36273602,-0.44979 0,-0.058 0.04837,-0.1064 0.638412,-0.63842 1.547669,-0.99148 0.909257,-0.35306 1.83786,-0.35306 0.928601,0 1.837855,0.35306 0.909257,0.35306 1.547672,0.99148 0.04836,0.0484 0.04836,0.1064 0,0.0871 -0.362735,0.44979 -0.362736,0.36274 -0.444953,0.36274 z m 1.310682,-1.31069 q -0.0532,0 -0.106402,-0.0435 -0.865728,-0.75933 -1.796747,-1.14383 -0.931021,-0.3845 -2.033735,-0.3845 -1.102716,0 -2.03373498,0.3845 -0.931022,0.3845 -1.79674902,1.14383 -0.0532,0.0435 -0.106403,0.0435 -0.08222,0 -0.447373,-0.36273 -0.365154,-0.36274 -0.365154,-0.44979 0,-0.0629 0.04837,-0.11124 0.904418,-0.89958 2.15222702,-1.3929 1.24780898,-0.49333 2.54882098,-0.49333 1.301007,0 2.548819,0.49333 1.247809,0.49332 2.152227,1.3929 0.04836,0.0484 0.04836,0.11124 0,0.087 -0.365151,0.44979 -0.365154,0.36273 -0.447375,0.36273 z"
       inkscape:connector-curvature="0"
       style="fill:#41b6c9;fill-opacity:1;stroke-width:0.00483647"
       inkscape:export-xdpi="6.6699429"
       inkscape:export-ydpi="6.6699429"
       inkscape:export-filename="C:\Users\daria\Documents\WORK_PROJECTS\CanaryCompany\icons\site\20\wifi-new.png" />
  </g>
</svg>
